HIERARCHY
ROOT hip
{
	OFFSET 0.000000 0.000000 0.000000 
	CHANNELS 6 Xposition Yposition Zposition Xrotation Zrotation Yrotation
	JOINT abdomen
	{
		OFFSET 0.000000 3.402643 0.000000 
		CHANNELS 3 Xrotation Zrotation Yrotation
		JOINT chest
		{
			OFFSET 0.000000 8.438565 -0.680529 
			CHANNELS 3 Xrotation Zrotation Yrotation
			JOINT neck
			{
				OFFSET 0.000000 10.207942 -0.272212 
				CHANNELS 3 Xrotation Zrotation Yrotation
				JOINT head
				{
					OFFSET 0.000000 3.130431 0.000000 
					CHANNELS 3 Xrotation Zrotation Yrotation
					End Site
					{
						OFFSET 0.000000 3.130435 0.000000 
					}
				}
			}
			JOINT lCollar
			{
				OFFSET 3.470700 6.669187 -0.816635 
				CHANNELS 3 Yrotation Zrotation Xrotation
				JOINT lShldr
				{
					OFFSET 3.198488 0.000000 0.000000 
					CHANNELS 3 Zrotation Yrotation Xrotation
					JOINT lForeArm
					{
						OFFSET 10.139888 0.000000 0.000000 
						CHANNELS 3 Yrotation Zrotation Xrotation
						JOINT lHand
						{
							OFFSET 8.370511 0.000000 0.000000 
							CHANNELS 3 Zrotation Yrotation Xrotation
							End Site
							{
								OFFSET 4.083176 0.000000 0.000000 
							}
						}
					}
				}
			}
			JOINT rCollar
			{
				OFFSET -3.470700 6.669187 -0.816635 
				CHANNELS 3 Yrotation Zrotation Xrotation
				JOINT rShldr
				{
					OFFSET -3.198488 0.000000 0.000000 
					CHANNELS 3 Zrotation Yrotation Xrotation
					JOINT rForeArm
					{
						OFFSET -10.139888 0.000000 0.000000 
						CHANNELS 3 Yrotation Zrotation Xrotation
						JOINT rHand
						{
							OFFSET -8.370511 0.000000 0.000000 
							CHANNELS 3 Zrotation Yrotation Xrotation
							End Site
							{
								OFFSET -4.083176 0.000000 0.000000 
							}
						}
					}
				}
			}
		}
	}
	JOINT lThigh
	{
		OFFSET 5.308129 -1.633274 1.361059 
		CHANNELS 3 Xrotation Zrotation Yrotation
		JOINT lShin
		{
			OFFSET -2.041588 -20.007561 0.000000 
			CHANNELS 3 Xrotation Zrotation Yrotation
			JOINT lFoot
			{
				OFFSET 0.000000 -19.190928 -1.224953 
				CHANNELS 3 Xrotation Yrotation Zrotation
				End Site
				{
					OFFSET 0.000000 -2.449906 4.627600 
				}
			}
		}
	}
	JOINT rThigh
	{
		OFFSET -5.308129 -1.633274 1.361059 
		CHANNELS 3 Xrotation Zrotation Yrotation
		JOINT rShin
		{
			OFFSET 2.041588 -20.007561 0.000000 
			CHANNELS 3 Xrotation Zrotation Yrotation
			JOINT rFoot
			{
				OFFSET 0.000000 -19.190928 -1.224953 
				CHANNELS 3 Xrotation Yrotation Zrotation
				End Site
				{
					OFFSET 0.000000 -2.449906 4.627600 
				}
			}
		}
	}
}
MOTION
Frames: 6
Frame Time: 0.033333
13.515718 49.850494 -6.762180 3.842715 -13.151955 56.068573 0.000000 0.000000 0.000000 2.275487 -7.308282 4.823211 39.000298 5.175757 0.176826 -35.691586 -2.786042 31.075571 -17.588985 29.995239 24.992109 -133.164566 -58.557568 47.985470 -104.673393 33.104275 65.598267 -70.444176 -49.282066 55.408478 -31.838127 -13.131760 16.135519 -27.796124 10.247116 47.261894 21.235605 -95.706123 -33.098751 33.043407 48.198044 -0.041707 -22.028046 19.778526 22.455608 43.663467 -4.719889 -3.000271 7.622401 0.081242 -10.251980 -59.312168 -28.347128 -5.215287 106.491211 -10.457802 5.823265 36.748199 -18.011599 19.718666 
13.681277 48.739170 -7.189648 4.718300 -14.709904 54.045116 0.000000 0.000000 0.000000 -0.245700 -6.888342 4.967400 37.625511 0.527342 -0.156243 -36.559425 0.471391 32.130180 -9.616385 26.499830 24.984837 -115.640305 -47.305557 32.799965 -101.359749 32.002686 72.423347 -80.213417 -52.291916 65.523201 -26.140457 -12.958386 17.920305 -26.879620 19.373402 47.219826 75.728386 -107.088158 24.732578 32.200489 47.015759 -2.414806 -27.124678 21.027866 22.093599 50.465466 -5.686991 -3.512801 -1.958926 7.975853 -4.062903 -64.593712 -27.321249 -4.449394 112.899178 -13.456738 5.472969 34.486614 -18.633413 12.515882 
14.143125 48.047932 -7.703597 6.181988 -12.004072 51.797565 0.000000 0.000000 0.000000 1.045673 -7.415323 4.824445 36.772179 -7.743469 -0.759570 -36.175392 3.332347 31.955147 -2.960622 20.151321 24.988867 -99.246040 -32.710617 23.016245 -94.408859 34.250134 68.563583 -78.890327 -55.073761 64.629776 -19.877750 -15.429795 18.698675 -28.739441 32.309032 44.138813 89.446327 -121.555412 39.699127 30.048134 48.125771 -5.549047 -25.766953 18.820995 21.435341 53.220974 -8.263594 -4.213842 -9.804466 15.636323 4.771248 -66.559143 -28.279724 -4.679861 117.887520 -16.375916 5.004200 32.145527 -20.369255 13.113886 
14.416646 47.658844 -8.290092 8.518767 -13.024639 47.367374 0.000000 0.000000 0.000000 -1.039937 -4.043243 5.589792 34.902786 -18.782436 -1.581204 -35.567635 6.651816 32.481670 4.491442 14.224774 23.386417 -85.936852 -14.328321 17.492882 -87.940636 32.602062 51.682003 -71.367775 -53.124039 55.738510 -12.201408 -24.060898 19.017710 -38.473183 46.134205 34.016369 -82.536209 -45.266510 -128.206314 19.030262 46.250446 -16.316256 -25.971693 18.322750 21.211172 52.295410 -10.579898 -4.739064 -12.828131 19.474600 2.765981 -70.678757 -27.478210 -4.108792 119.163536 -13.093858 5.715536 31.671457 -19.479622 16.970493 
14.687893 48.079494 -8.755129 12.711825 -10.617558 44.258297 0.000000 0.000000 0.000000 -0.846660 -5.338485 5.305651 32.187855 -26.789486 -2.214195 -36.523357 10.183824 32.179234 14.468804 9.663351 21.697496 -72.817497 4.355306 14.405262 -91.320290 26.975664 45.722801 -68.222275 -53.298870 52.472275 -2.469801 -30.000000 22.619469 -57.346344 50.489460 19.082142 -76.973053 -28.768749 -116.190277 10.015720 47.265385 -22.084425 -24.263044 12.973577 19.518044 48.082214 -11.240056 -4.688522 -10.545153 20.339430 -5.068683 -73.393066 -28.591284 -4.338668 117.772827 -10.244014 6.296683 29.745129 -14.631337 15.118868 
14.583635 49.266804 -8.629984 14.835422 -8.965135 40.885204 0.000000 0.000000 0.000000 0.015324 -5.455514 5.267670 30.409826 -36.628689 -3.140287 -35.141617 15.904471 33.316059 24.522707 4.451659 21.884207 -57.650135 18.041351 10.158036 -92.643143 20.408970 43.586601 -60.872250 -53.638222 45.429741 12.644705 -30.000000 24.998348 -73.552704 46.225239 10.754211 -74.190811 -9.429137 -107.398682 4.684034 47.521736 -26.326784 -20.414021 11.252970 19.443630 41.920071 -11.993291 -4.554761 -4.675176 18.473227 -11.656037 -71.717377 -27.519106 -4.048000 113.190895 -3.222361 7.604640 21.015888 -8.542396 -3.546947 
